# xmcd CD database file
#
# Track frame offsets:
#	150
#	18308
#	31071
#
# Disc length: 613 seconds
#
# Revision: 2
# Processed by: cddbd v1.5PL3 Copyright (c) Steve Scherf et al.
# Submitted via: CDex 1.50
#
DISCID=15026303
DTITLE=Roman Fischer - Outtakes
DYEAR=2003
DGENRE=Blues
TTITLE0=Bigger Than Now
TTITLE1=What You're Gonna Do
TTITLE2=We'll Never Know
EXTD=YEAR: 2003
EXTT0=
EXTT1=
EXTT2=
PLAYORDER=
